<svg xmlns="http://www.w3.org/2000/svg" viewBox="0 0 96 96" id="deepak">
  <path d="M78 96H18C8.059 96 0 87.941 0 78V18C0 8.059 8.059 0 18 0h60c9.941 0 18 8.059 18 18v60c0 9.941-8.059 18-18 18z"></path>
  <path fill="#fff" d="M47.5 20.34h1v3h-1zm8.5 9h3v1h-3zm-19 0h3v1h-3zM53.656 25.476l2.121-2.12.707.706-2.12 2.122zM39.513 24.061l.707-.707 2.122 2.12-.707.708zM48 71.34c2.206 0 4-1.794 4-4s-1.794-4-4-4-4 1.794-4 4 1.794 4 4 4zm0-7c1.654 0 3 1.346 3 3s-1.346 3-3 3-3-1.346-3-3 1.346-3 3-3zm-3.854-.184-.77-.639a6.124 6.124 0 0 0-.594.858l.869.496c.145-.253.311-.494.495-.715zm7.665-1.45a6.014 6.014 0 0 0-.86-.591l-.493.87c.253.143.495.309.718.492l.635-.771zm-5.56-.05-.349-.938a5.905 5.905 0 0 0-.943.449l.508.861c.248-.146.512-.272.784-.372zm2.573-.249.163-.986A6.02 6.02 0 0 0 48 61.34h-.048l.048 1c.276 0 .554.023.824.067zm4.793 2.819a5.98 5.98 0 0 0-.452-.941l-.86.51c.148.251.275.515.377.783l.935-.352zm-6.47 7.041-.17.986c.299.051.604.08.974.08h.064L48 72.34c-.286 0-.573-.024-.853-.073zm-2.985-.317c.266.223.555.424.859.598l.496-.867a5 5 0 0 1-.712-.496l-.643.765zm3.854 1.383.074-.001-.075-.493.001.494zm-5.644-3.91c.121.325.271.643.446.942l.863-.504a5.174 5.174 0 0 1-.372-.786l-.937.348zm9.462 1.126.767.643c.223-.267.425-.555.599-.855l-.866-.5c-.145.25-.313.489-.5.712zM53 67.34c0 .29-.025.582-.075.869l.985.17c.06-.343.09-.692.09-1.039v-.077l-1 .077zm-3.278 4.695.343.939c.325-.118.643-.268.946-.443l-.502-.865a4.932 4.932 0 0 1-.787.369zm-6.652-5.532-.986-.168A6.09 6.09 0 0 0 42 67.361l.208.005.792-.026c0-.281.023-.562.07-.837zM34 63.34c-1.654 0-3 1.346-3 3s1.346 3 3 3 3-1.346 3-3-1.346-3-3-3zm0 5c-1.103 0-2-.897-2-2s.897-2 2-2 2 .897 2 2-.897 2-2 2zm4-2c0 .312-.036.621-.106.92l.973.23A5.06 5.06 0 0 0 39 66.326l-.298-.023-.702.037zm-8.71-1.681.941.336c.104-.291.243-.571.411-.832l-.839-.543a4.97 4.97 0 0 0-.513 1.039zm3.532-2.144-.296-.955a4.965 4.965 0 0 0-1.061.469l.508.861c.266-.156.551-.282.849-.375zm5.622 1.533a4.98 4.98 0 0 0-.647-.961l-.759.65c.202.235.376.494.518.77l.888-.459zm-2.506-2.318a4.94 4.94 0 0 0-1.115-.322l-.163.986c.305.051.604.137.889.258l.389-.922zm.457 7.815.599.801c.31-.231.593-.5.842-.798l-.768-.641a4.023 4.023 0 0 1-.673.638zM62 63.34c-1.654 0-3 1.346-3 3s1.346 3 3 3 3-1.346 3-3-1.346-3-3-3zm0 5c-1.103 0-2-.897-2-2s.897-2 2-2 2 .897 2 2-.897 2-2 2zm4-2c0 .312-.036.621-.106.92l.973.23A5.06 5.06 0 0 0 67 66.326l-.298-.023-.702.037zm-.203-3.253-.759.65c.202.235.376.494.518.77l.889-.459a5.03 5.03 0 0 0-.648-.961zm-7.214 6.902c.281.266.595.498.933.691l.497-.867c-.27-.155-.52-.34-.744-.551l-.686.727zm.059-5.826-.839-.543a5 5 0 0 0-.514 1.039l.941.336c.105-.291.244-.571.412-.832zm-1.606 2.785c.046.385.138.764.273 1.128l.938-.348a3.984 3.984 0 0 1-.217-.899l-.994.119zm3.786-4.433-.296-.955a4.965 4.965 0 0 0-1.061.469l.508.861c.266-.156.551-.282.849-.375zm3.116-.785a4.94 4.94 0 0 0-1.115-.322l-.163.986c.305.051.604.137.889.258l.389-.922z"></path>
  <path fill="#fff" d="M75.995 48.541c0-.067.005-.133.005-.201h-.026c-.518-3.214-10.981-5.105-21.692-5.606a8.2 8.2 0 0 0-.227-10.889.514.514 0 0 0-.476-.176.5.5 0 0 0-.374.299 7.277 7.277 0 0 1-1.896 2.634 8.096 8.096 0 0 0 .247-1.99V32.553a8.251 8.251 0 0 0-4.251-7.151.5.5 0 0 0-.721.289c-.188.604-.376 1.09-.594 1.531a10.507 10.507 0 0 1-2.987 3.647 8.192 8.192 0 0 0-3.244 6.55c0 1.986.733 3.856 1.964 5.312-10.713.501-21.18 2.392-21.698 5.607H20c0 .067.005.133.005.201 0 .018-.005.034-.005.051h.006C20.142 63.914 32.644 76.34 48 76.34s27.858-12.426 27.994-27.75H76c0-.017-.005-.033-.005-.049zm-1.78 6.251c-1.957 1.826-6.932 3.048-12.465 3.048-7.809 0-13.25-2.371-13.25-4.5h-1c0 2.129-5.441 4.5-13.25 4.5-5.535 0-10.509-1.223-12.465-3.049a26.843 26.843 0 0 1-.691-4.301c2.129 1.986 7.154 3.35 13.157 3.35 6.66 0 12.117-1.678 13.75-4.022 1.633 2.345 7.09 4.022 13.75 4.022 6.003 0 11.028-1.364 13.157-3.35a27.083 27.083 0 0 1-.693 4.302zM43.537 31.72l.037-.025a11.526 11.526 0 0 0 3.314-4.028c.163-.33.31-.68.451-1.072a7.257 7.257 0 0 1 3.218 5.975v.043a7.152 7.152 0 0 1-.706 3.1.498.498 0 0 0 .696.651 8.309 8.309 0 0 0 3.236-3.284 7.206 7.206 0 0 1 1.456 4.343 7.216 7.216 0 0 1-4.311 6.619c-2.625-1.162-4.311-3.739-4.308-6.672a.5.5 0 0 0-.868-.338 6.289 6.289 0 0 0-1.138 6.785c-2.324-1.238-3.854-3.698-3.854-6.395a7.196 7.196 0 0 1 2.777-5.702zm1.549 9.571c0-.888.223-1.751.642-2.521a8.197 8.197 0 0 0 1.718 3.826c-.731.003-1.457.01-2.173.024a5.264 5.264 0 0 1-.187-1.329zm-2.406 2.404a8.164 8.164 0 0 0 2.983 1.624.5.5 0 0 0 .537-.786 5.323 5.323 0 0 1-.56-.917c.781-.014 1.563-.027 2.36-.027l.417.001a8.24 8.24 0 0 0 2.322 1.455.507.507 0 0 0 .379 0 8.282 8.282 0 0 0 2.211-1.35c13.176.519 21.389 2.867 21.646 4.8-.256 2.087-5.607 4.344-13.226 4.344-7.809 0-13.25-2.371-13.25-4.5v-3h-1v3c0 2.129-5.441 4.5-13.25 4.5-7.619 0-12.969-2.257-13.226-4.344.259-1.933 8.475-4.281 21.657-4.8zm22.589 25.381-.202-.169a4.066 4.066 0 0 1-.673.638l.107.143c-.546.423-1.108.827-1.686 1.208l-.11-.617a4.003 4.003 0 0 1-.924.056l-.059.998c.092.006.185.008.277.008.048 0 .094-.011.143-.013A26.835 26.835 0 0 1 48 75.34a26.828 26.828 0 0 1-14.129-4.004c.043.001.086.004.129.004.297 0 .594-.026.881-.077l-.176-.984a4 4 0 0 1-.924.056l-.053.91a27.335 27.335 0 0 1-1.824-1.241l.109-.191c-.27-.155-.52-.34-.744-.551l-.134.141a27.038 27.038 0 0 1-1.617-1.406l.727-.27a3.984 3.984 0 0 1-.217-.899l-.993.119c.03.249.086.493.153.735a27.036 27.036 0 0 1-6.978-11.34c2.544 1.542 7.022 2.498 12.039 2.498 6.66 0 12.117-1.678 13.75-4.022 1.633 2.345 7.09 4.022 13.75 4.022 5.017 0 9.495-.955 12.039-2.498a27.062 27.062 0 0 1-8.519 12.734z"></path>
</svg>
